<svg xmlns:dc="http://purl.org/dc/elements/1.1/" xmlns:cc="http://creativecommons.org/ns#" xmlns:rdf="http://www.w3.org/1999/02/22-rdf-syntax-ns#" xmlns:svg="http://www.w3.org/2000/svg" xmlns="http://www.w3.org/2000/svg" xmlns:sodipodi="http://sodipodi.sourceforge.net/DTD/sodipodi-0.dtd" xmlns:inkscape="http://www.inkscape.org/namespaces/inkscape" id="svg4196" inkscape:version="0.91 r13725" width="434.0625" height="577.5" viewBox="0 0 434.0625 577.5" sodipodi:docname="FleursDeLysSilhouette.svg"><metadata></metadata><defs id="defs4200"></defs><path style="fill:#000000" d="m 211.48958,574.61557 c -1.33489,-1.58643 -2.42708,-3.46115 -2.42708,-4.16603 0,-0.99441 -0.9595,-0.85717 -4.28179,0.61243 -5.32975,2.35761 -10.50421,1.70886 -13.96378,-1.75072 -3.20067,-3.20067 -3.78873,-5.99202 -1.99364,-9.46332 1.95624,-3.78297 3.39271,-4.54691 4.83663,-2.57223 0.69553,0.95118 2.09388,1.49633 3.3734,1.31509 4.27533,-0.60556 2.89485,-9.19344 -2.51042,-15.61725 -1.33183,-1.58279 -5.67167,-5.16776 -9.64408,-7.9666 -8.52693,-6.00782 -10.25038,-7.7761 -14.54598,-14.92445 -5.59612,-9.31252 -5.63518,-22.18287 -0.10305,-33.95258 1.20244,-2.55824 2.03568,-4.80194 1.85162,-4.98601 -0.18406,-0.18406 -2.34911,1.203 -4.8112,3.08237 -9.6037,7.33066 -26.28919,13.58623 -36.2386,13.58623 -15.87698,0 -26.4654,-6.15128 -34.360135,-19.96129 -5.519289,-9.65471 -5.151964,-24.31512 0.826959,-33.00519 7.673386,-11.1529 31.876566,-10.34697 31.876566,1.06143 0,1.66673 0.71028,2.17274 3.77716,2.69088 4.00441,0.67655 11.68554,-0.76585 14.03534,-2.63561 1.91562,-1.52429 6.23303,-8.14063 7.00064,-10.72835 0.5748,-1.93774 0.32363,-2.10937 -3.08716,-2.10937 -4.00366,0 -4.85098,-0.97604 -4.85098,-5.58794 0,-2.08694 -0.62183,-2.86715 -3.04688,-3.82284 -12.25963,-4.83141 -11.67442,-19.17395 0.89498,-21.93465 2.3284,-0.5114 3.04016,-1.20189 3.2675,-3.16982 0.26478,-2.29207 0.69118,-2.5416 4.79076,-2.80366 l 4.50012,-0.28767 -0.58997,-10.49358 c -0.32448,-5.77148 -0.81306,-11.1264 -1.08573,-11.89984 -0.27267,-0.77344 -1.48403,-5.32879 -2.69189,-10.12301 -4.24347,-16.84298 -12.92188,-35.23637 -21.93374,-46.48728 -12.49557,-15.60019 -26.20351,-28.07965 -36.1364,-32.89795 -9.390287,-4.55509 -10.269309,-4.7048 -11.5191,-1.96181 -1.345587,2.95324 -7.606848,9.90755 -8.920192,9.90755 -0.551299,0 -1.873303,0.79543 -2.937785,1.76763 -1.064483,0.97219 -5.170348,2.87062 -9.124147,4.21875 -7.942233,2.70804 -15.672132,3.13893 -26.064256,1.45287 C 21.794742,296.7533 9.8546175,286.03552 3.0026915,269.69371 0.85954946,264.58233 0.5795242,262.64681 0.60557221,253.125 0.63977392,240.6226 2.2802062,233.75063 6.965366,226.48303 c 3.647881,-5.65857 14.34058,-17.41171 15.867713,-17.44138 0.590244,-0.0115 2.127858,-0.8555 3.416921,-1.87564 6.338516,-5.01618 20.853032,-10.36639 32.956544,-12.14816 8.955633,-1.31837 14.666905,-1.1101 26.574706,0.96908 15.95064,2.78509 29.28186,9.15163 44.88703,21.43652 5.11995,4.0306 16.5672,16.24408 20.44654,21.81516 14.12737,20.28817 30.03441,56.27437 35.14657,79.51139 2.06028,9.36491 4.98861,26.21605 4.98861,28.70712 0,1.22671 0.41541,2.23038 0.92313,2.23038 0.56494,0 0.71366,-2.27346 0.38329,-5.85938 -0.69386,-7.53112 -5.57322,-34.20573 -7.49395,-40.9681 -11.16173,-39.2975 -24.96142,-68.55882 -42.74967,-90.64787 -13.96616,-17.34287 -25.5517,-37.46542 -31.11578,-54.04401 -3.12611,-9.31447 -4.17274,-14.53124 -5.21246,-25.98064 -1.56629,-17.24798 2.96711,-33.272681 14.05662,-49.6875 9.72775,-14.399139 29.84416,-27.497491 54.80257,-35.683478 16.08997,-5.27727 21.46406,-8.374893 24.40868,-14.069137 1.82107,-3.521578 1.81861,-13.9868 -0.004,-16.396326 -1.69127,-2.236061 -1.81983,-4.753222 -0.29102,-5.69808 1.75824,-1.086654 6.22162,-0.471063 8.791,1.212459 2.69016,1.762664 2.53694,1.877936 3.93356,-2.959188 C 212.74817,5.2143697 216.72204,0 218.46967,0 c 1.40979,0 6.34103,7.3158952 7.02245,10.418383 0.60342,2.747365 0.66845,2.776171 2.92684,1.29642 1.27034,-0.832357 3.6575,-1.382916 5.30481,-1.223465 3.33428,0.322744 3.20698,-0.460018 1.98356,12.196332 -0.515,5.327569 -0.29772,6.920706 1.43079,10.49134 1.8475,3.816419 2.88706,4.631348 11.12186,8.718581 4.99614,2.479763 9.50576,4.5271 10.02138,4.549639 1.50012,0.06557 9.73062,3.264878 17.34375,6.741744 22.00794,10.050872 30.79794,16.733497 39.78741,30.248526 9.70841,14.5959 13.93723,27.00902 13.89309,40.78125 -0.0549,17.14094 -2.54375,26.75434 -11.61106,44.84931 -5.4243,10.8249 -8.20221,15.14365 -28.43883,44.21319 -24.98249,35.88687 -34.51767,56.39164 -44.68581,96.09375 -3.23779,12.64214 -7.34263,34.69614 -7.37237,39.60937 -0.006,0.90235 0.34397,1.64063 0.7765,1.64063 0.43254,0 1.31584,-3.69141 1.96289,-8.20313 4.91324,-34.25865 13.00801,-59.27734 26.61699,-82.26562 10.34754,-17.47907 19.77413,-28.90968 32.4917,-39.39919 12.43019,-10.2525 19.40182,-14.44164 34.17271,-20.53388 8.76707,-3.61597 35.44351,-5.59535 45.16187,-3.35099 2.11687,0.48887 5.37748,1.07845 7.24581,1.31018 4.92541,0.61091 16.91785,6.05404 24.75259,11.23471 15.64987,10.34839 22.68496,24.18315 22.94091,45.11417 0.17127,14.00599 -4.01587,26.01347 -12.14608,34.83134 -9.51394,10.31862 -19.49392,14.76351 -33.04832,14.71901 -8.51826,-0.0279 -15.38875,-1.82812 -24.60078,-6.44575 -6.32733,-3.17164 -7.76553,-4.4804 -11.9087,-10.83684 l -3.4104,-5.23225 -6.10083,2.4713 c -3.35546,1.35921 -8.64637,4.01762 -11.7576,5.90759 -6.87738,4.17778 -20.10877,16.42664 -25.74299,23.83139 -2.27422,2.98888 -4.45639,5.85786 -4.84927,6.37552 -0.39286,0.51766 -1.92616,2.5199 -3.40731,4.44944 -5.85077,7.62197 -15.01398,28.06378 -18.38888,41.023 -1.98088,7.60632 -4.16916,21.67817 -4.19142,26.95312 l -0.0169,3.98438 4.18577,0 c 3.27874,0 4.4117,0.42217 5.22844,1.94826 0.57346,1.07154 0.81249,2.5481 0.53116,3.28125 -0.38239,0.99647 0.32016,1.33299 2.78292,1.33299 4.32786,0 7.40293,3.09818 8.2341,8.29601 0.94786,5.92761 -1.2757,9.93118 -6.96538,12.54138 -4.35744,1.99901 -4.5473,2.24849 -4.81356,6.32498 l -0.2772,4.24388 -4.92188,0.28337 c -2.70703,0.15585 -4.92187,0.6199 -4.92187,1.03121 0,1.481 5.56345,8.3868 8.65824,10.74731 4.14674,3.16288 9.05062,5.12036 11.96676,4.77676 1.28906,-0.15188 2.85135,-0.3113 3.47176,-0.35428 0.6204,-0.0429 1.92118,-1.87124 2.89063,-4.06284 3.73663,-8.44726 17.00664,-12.03754 26.63184,-7.20539 5.53292,2.7777 8.02066,5.22756 10.88714,10.72136 2.10575,4.03583 2.44655,5.86051 2.45137,13.125 0.007,9.88434 -2.18741,16.59397 -7.42806,22.71649 -10.95885,12.80295 -33.1726,17.46316 -52.02968,10.91528 -8.145,-2.82825 -10.427,-4.27094 -16.5884,-10.48731 -3.41771,-3.4482 -5.89068,-5.42571 -5.49549,-4.39446 4.48024,11.69132 5.31377,15.27615 5.01365,21.5625 -0.5866,12.28691 -6.98608,22.02479 -21.5438,32.78253 -9.94063,7.34584 -12.45034,10.82395 -12.46678,17.27731 -0.008,3.22882 0.41308,5.21927 1.15894,5.47533 0.64454,0.22128 1.17188,-0.24074 1.17188,-1.02672 0,-2.2178 1.72615,-2.76633 4.75601,-1.51132 5.09768,2.11153 5.05875,9.44575 -0.0685,12.90804 -2.90706,1.96305 -3.94812,2.14524 -9.12895,1.59754 l -5.84771,-0.6182 -1.97927,3.35462 c -2.43322,4.12401 -4.61919,4.2557 -7.80448,0.47019 z" id="path4206" inkscape:connector-curvature="0"></path></svg>